<svg width="80" height="81" viewBox="0 0 80 81" fill="none" xmlns="http://www.w3.org/2000/svg">
<path d="M74.375 40.5C74.375 59.4847 58.9847 74.875 40 74.875C21.0152 74.875 5.625 59.4847 5.625 40.5C5.625 21.5152 21.0152 6.125 40 6.125" stroke="#A36316" stroke-width="5"/>
<path d="M57.1875 40.5C57.1875 49.9925 49.4925 57.6875 40 57.6875C30.5076 57.6875 22.8125 49.9925 22.8125 40.5C22.8125 31.0076 30.5076 23.3125 40 23.3125" stroke="#A36316" stroke-width="5"/>
<path d="M40 40.4999L52.0312 28.4688" stroke="#A36316" stroke-width="5"/>
<path d="M50.3125 19.875L52.0312 28.4687L60.625 30.1875L70.9375 19.875L62.3437 18.1562L60.625 9.5625L50.3125 19.875Z" stroke="#A36316" stroke-width="5"/>
</svg>
