<svg width="81" height="81" viewBox="0 0 81 81" fill="none" xmlns="http://www.w3.org/2000/svg">
<g clip-path="url(#clip0_722_108)">
<path d="M40.5 13C53.105 14.1467 62.8967 18.73 69.875 26.75C76.8533 34.77 80.395 39.3533 80.5 40.5C80.395 41.6467 76.8533 46.23 69.875 54.25C62.8967 62.27 53.105 66.8533 40.5 68C27.895 66.8533 18.1033 62.27 11.125 54.25C4.14667 46.23 0.605 41.6467 0.5 40.5C0.605 39.3533 4.14667 34.77 11.125 26.75C18.1033 18.73 27.895 14.1467 40.5 13ZM40.5 18C31.645 18.5733 24.2746 21.5553 18.3896 26.9453C12.5048 32.3352 8.49405 36.8534 6.35742 40.5C8.49238 44.1466 12.5032 48.6648 18.3896 54.0547C24.2763 59.4447 31.6467 62.4267 40.5 63C49.355 62.4267 56.7253 59.4447 62.6104 54.0547C68.4952 48.6648 72.506 44.1466 74.6426 40.5C72.5076 36.8534 68.4968 32.3352 62.6104 26.9453C56.7237 21.5553 49.3533 18.5733 40.5 18ZM40.5 23C45.4483 23.105 49.5761 24.8105 52.8828 28.1172C56.1895 31.4239 57.895 35.5517 58 40.5C57.895 45.4483 56.1895 49.5761 52.8828 52.8828C49.5761 56.1895 45.4483 57.895 40.5 58C35.5517 57.895 31.4239 56.1895 28.1172 52.8828C24.8105 49.5761 23.105 45.4483 23 40.5C23.105 35.5517 24.8105 31.4239 28.1172 28.1172C31.4239 24.8105 35.5517 23.105 40.5 23ZM40.5 28C36.9583 28.105 34.0162 29.3295 31.6729 31.6729C29.3295 34.0162 28.105 36.9583 28 40.5C28.105 44.0417 29.3295 46.9838 31.6729 49.3271C34.0162 51.6705 36.9583 52.895 40.5 53C44.0417 52.895 46.9838 51.6705 49.3271 49.3271C51.6705 46.9838 52.895 44.0417 53 40.5C52.895 36.9583 51.6705 34.0162 49.3271 31.6729C46.9838 29.3295 44.0417 28.105 40.5 28Z" fill="#A36316"/>
</g>
<defs>
<clipPath id="clip0_722_108">
<rect width="80" height="80" fill="white" transform="translate(0.5 0.5)"/>
</clipPath>
</defs>
</svg>
