<svg width="361" height="460" viewBox="0 0 361 460" fill="none" xmlns="http://www.w3.org/2000/svg">
<path d="M354.21 5.1084L352.156 11.4971L308.369 147.724V288.805H264.348V186.087H111.039C94.6199 186.087 78.8728 192.61 67.2627 204.22C55.6528 215.83 49.131 231.576 49.1309 247.995V288.805H5.1084V246.173C5.10845 218.931 15.9311 192.804 35.1943 173.541L36.584 172.15C55.8472 152.887 81.9745 142.065 109.217 142.065H260.9L308.654 8.35449L309.813 5.1084H354.21Z" fill="white" stroke="black" stroke-width="9.78261"/>
<path d="M10 323.043H44.2391V358.961C44.2391 376.677 51.277 393.668 63.8044 406.196C76.3317 418.723 93.3225 425.761 111.039 425.761H269.239V323.043H303.478V460H264.348H109.217C83.2715 460 58.389 449.693 40.0431 431.347L38.6526 429.957C20.3067 411.611 10 386.729 10 360.783V323.043Z" fill="white"/>
</svg>
