<svg width="61" height="61" viewBox="0 0 61 61" fill="none" xmlns="http://www.w3.org/2000/svg">
<path fill-rule="evenodd" clip-rule="evenodd" d="M40.2857 8.67822H20.2857C13.3822 8.67822 7.78571 14.2747 7.78571 21.1782V41.1782C7.78571 48.0817 13.3822 53.6782 20.2857 53.6782H40.2857C47.1892 53.6782 52.7857 48.0817 52.7857 41.1782V21.1782C52.7857 14.2747 47.1892 8.67822 40.2857 8.67822ZM48.4107 41.1782C48.397 45.6597 44.7672 49.2895 40.2857 49.3032H20.2857C15.8041 49.2895 12.1744 45.6597 12.1607 41.1782V21.1782C12.1744 16.6966 15.8041 13.0669 20.2857 13.0532H40.2857C44.7672 13.0669 48.397 16.6966 48.4107 21.1782V41.1782ZM42.1607 21.8032C43.5415 21.8032 44.6607 20.6839 44.6607 19.3032C44.6607 17.9225 43.5415 16.8032 42.1607 16.8032C40.78 16.8032 39.6607 17.9225 39.6607 19.3032C39.6607 20.6839 40.78 21.8032 42.1607 21.8032ZM30.2857 19.9282C24.0725 19.9282 19.0357 24.965 19.0357 31.1782C19.0357 37.3915 24.0725 42.4282 30.2857 42.4282C36.499 42.4282 41.5357 37.3915 41.5357 31.1782C41.5425 28.1925 40.3592 25.3271 38.248 23.2159C36.1367 21.1047 33.2715 19.9216 30.2857 19.9282ZM23.4107 31.1782C23.4107 34.9752 26.4887 38.0532 30.2857 38.0532C34.0827 38.0532 37.1607 34.9752 37.1607 31.1782C37.1607 27.3812 34.0827 24.3032 30.2857 24.3032C26.4887 24.3032 23.4107 27.3812 23.4107 31.1782Z" fill="white"/>
</svg>
