<svg width="61" height="61" viewBox="0 0 61 61" fill="none" xmlns="http://www.w3.org/2000/svg">
<path fill-rule="evenodd" clip-rule="evenodd" d="M12.1072 8.67822C10.0361 8.67822 8.35718 10.3571 8.35718 12.4282V49.9282C8.35718 51.9992 10.0361 53.6782 12.1072 53.6782H49.6072C51.6782 53.6782 53.3572 51.9992 53.3572 49.9282V12.4282C53.3572 10.3571 51.6782 8.67822 49.6072 8.67822H12.1072ZM22.1591 18.685C22.1732 21.0756 20.3837 22.5487 18.2603 22.5381C16.2599 22.5276 14.5161 20.935 14.5267 18.6885C14.5372 16.5756 16.2071 14.8776 18.3763 14.9268C20.5771 14.976 22.1732 16.5897 22.1591 18.685ZM31.5564 25.5826H25.2565H25.2529V46.9822H31.9114V46.483C31.9114 45.5332 31.9107 44.5832 31.9099 43.633C31.9079 41.0985 31.9057 38.5612 31.9187 36.0275C31.9222 35.4122 31.9502 34.7725 32.1084 34.1852C32.7024 31.9915 34.6749 30.5747 36.8757 30.923C38.2889 31.1442 39.2239 31.9635 39.6177 33.296C39.8604 34.129 39.9694 35.0255 39.9799 35.894C40.0084 38.513 40.0044 41.132 40.0004 43.7512C39.9989 44.6757 39.9974 45.6007 39.9974 46.5252V46.9787H46.6772V46.4655C46.6772 45.3355 46.6767 44.2057 46.6759 43.076C46.6747 40.2522 46.6732 37.4285 46.6807 34.6037C46.6842 33.3275 46.5472 32.069 46.2342 30.835C45.7667 28.9997 44.7999 27.481 43.2284 26.3842C42.1139 25.6037 40.8904 25.101 39.5229 25.0447C39.3672 25.0382 39.2102 25.0298 39.0524 25.0212C38.3532 24.9834 37.6424 24.945 36.9739 25.0799C35.0614 25.4631 33.3812 26.3385 32.1119 27.8817C31.9644 28.0587 31.8202 28.2385 31.6049 28.5067L31.5564 28.5675V25.5826ZM15.0613 46.9892H21.6882V25.5965H15.0613V46.9892Z" fill="white"/>
</svg>
