<svg width="41" height="40" viewBox="0 0 41 40" fill="none" xmlns="http://www.w3.org/2000/svg">
<path d="M5.5 8.75V28.75C5.52583 29.4533 5.77333 30.0392 6.2425 30.5075C6.71167 30.9758 7.2975 31.2233 8 31.25H33C33.7033 31.2242 34.2892 30.9767 34.7575 30.5075C35.2258 30.0383 35.4733 29.4525 35.5 28.75V8.75H5.5ZM5.5 6.25H35.5C36.2033 6.27583 36.7892 6.52333 37.2575 6.9925C37.7258 7.46167 37.9733 8.0475 38 8.75V28.75C37.9742 30.1567 37.4858 31.335 36.535 32.285C35.5842 33.235 34.4058 33.7233 33 33.75H8C6.59333 33.7242 5.415 33.2358 4.465 32.285C3.515 31.3342 3.02667 30.1558 3 28.75V8.75C3.02583 8.04667 3.27333 7.46083 3.7425 6.9925C4.21167 6.52417 4.7975 6.27667 5.5 6.25ZM35.8125 8.75L26.1637 19.805C25.4346 20.6125 24.5817 21.2375 23.605 21.68C22.6283 22.1225 21.5933 22.3438 20.5 22.3438C19.4067 22.3438 18.3717 22.1225 17.395 21.68C16.4183 21.2375 15.5654 20.6125 14.8363 19.805L5.1875 8.75H35.8125ZM8.5075 8.75L16.75 18.1637C17.2192 18.7104 17.7792 19.1271 18.43 19.4137C19.0808 19.7004 19.7708 19.8438 20.5 19.8438C21.2292 19.8438 21.9192 19.7004 22.57 19.4137C23.2208 19.1271 23.7808 18.7104 24.25 18.1637L32.4925 8.75H8.5075Z" fill="#A36316"/>
</svg>
