<svg width="40" height="40" viewBox="0 0 40 40" fill="none" xmlns="http://www.w3.org/2000/svg">
<path d="M11.25 35H28.75C29.5833 35 30 35.4167 30 36.25C30 37.0833 29.5833 37.5 28.75 37.5H11.25C10.4167 37.5 10 37.0833 10 36.25C10 35.4167 10.4167 35 11.25 35ZM31.25 16.25C31.1717 13.0725 30.0712 10.4229 27.9487 8.30125C25.8262 6.17958 23.1767 5.07917 20 5C16.8225 5.07833 14.1729 6.17875 12.0512 8.30125C9.92958 10.4237 8.82917 13.0733 8.75 16.25C8.75 18.5675 9.68083 21.2171 11.5425 24.1987C13.4042 27.1804 16.2233 30.4812 20 34.1012C23.7758 30.4812 26.595 27.1804 28.4575 24.1987C30.32 21.2171 31.2508 18.5675 31.25 16.25V16.25ZM20 37.5C10.8333 29.1667 6.25 22.0833 6.25 16.25C6.35417 12.3433 7.69542 9.10125 10.2737 6.52375C12.8521 3.94625 16.0942 2.605 20 2.5C23.9067 2.60417 27.1487 3.94542 29.7262 6.52375C32.3037 9.10208 33.645 12.3442 33.75 16.25C33.75 22.0833 29.1667 29.1667 20 37.5ZM20 20C21.0675 19.9742 21.9529 19.6096 22.6562 18.9062C23.3596 18.2029 23.7112 17.3175 23.7112 16.25C23.7112 15.1825 23.3596 14.2971 22.6562 13.5937C21.9529 12.8904 21.0675 12.5387 20 12.5387C18.9325 12.5387 18.0471 12.8904 17.3437 13.5937C16.6404 14.2971 16.2887 15.1825 16.2887 16.25C16.2887 17.3175 16.6404 18.2029 17.3437 18.9062C18.0471 19.6096 18.9325 19.9742 20 20ZM20 22.5C18.2292 22.4475 16.7579 21.8354 15.5862 20.6637C14.4146 19.4921 13.8025 18.0208 13.75 16.25C13.8025 14.4792 14.4146 13.0079 15.5862 11.8362C16.7579 10.6646 18.2292 10.0525 20 10C21.7708 10.0525 23.2421 10.6646 24.4137 11.8362C25.5854 13.0079 26.1975 14.4792 26.25 16.25C26.1975 18.0208 25.5854 19.4921 24.4137 20.6637C23.2421 21.8354 21.7708 22.4475 20 22.5V22.5Z" fill="#A36316"/>
</svg>
