<svg width="41" height="40" viewBox="0 0 41 40" fill="none" xmlns="http://www.w3.org/2000/svg">
<path d="M3.58684 16.875L23.6256 36.9137C23.8081 37.0962 24.0231 37.2071 24.2706 37.2463C24.5181 37.2854 24.7589 37.2529 24.9931 37.1488L34.8756 32.93C35.2923 32.7475 35.5398 32.4417 35.6181 32.0125C35.6964 31.5833 35.5793 31.2121 35.2668 30.8988L29.2906 24.8825C29.0823 24.7 28.8477 24.5829 28.5868 24.5312C28.326 24.4796 28.0785 24.5187 27.8443 24.6488L25.1093 26.0163L14.4843 15.3912L15.8518 12.6562C15.9818 12.4221 16.021 12.1746 15.9693 11.9137C15.9177 11.6529 15.8006 11.4183 15.6181 11.21L9.60184 5.23375C9.28934 4.92125 8.91809 4.80417 8.48808 4.8825C8.05808 4.96083 7.75225 5.20833 7.57059 5.625L3.35183 15.5075C3.24767 15.7417 3.21517 15.9825 3.25434 16.23C3.2935 16.4775 3.40434 16.6925 3.58684 16.875ZM5.96934 15.7037L9.13309 8.28125L13.2343 12.3438L11.4368 15.8988L24.6006 29.0625L28.1556 27.265L32.2181 31.3663L24.7956 34.53L5.96934 15.7037ZM20.5006 12.5V10C23.3389 10.0783 25.6956 11.055 27.5706 12.93C29.4456 14.805 30.4223 17.1617 30.5006 20H28.0006C27.9481 17.8642 27.2189 16.0933 25.8131 14.6875C24.4073 13.2817 22.6364 12.5525 20.5006 12.5ZM20.5006 5V2.5C25.4489 2.63 29.5702 4.34208 32.8643 7.63625C36.1585 10.9304 37.8706 15.0517 38.0006 20H35.5006C35.3964 15.755 33.9314 12.22 31.1056 9.395C28.2798 6.57 24.7448 5.105 20.5006 5Z" fill="#A36316"/>
</svg>
