<svg width="24" height="25" viewBox="0 0 24 25" fill="none" xmlns="http://www.w3.org/2000/svg">
<path fill-rule="evenodd" clip-rule="evenodd" d="M17.3333 0.323578H6.66667C2.98477 0.323578 0 3.30835 0 6.99024V17.6569C0 21.3388 2.98477 24.3236 6.66667 24.3236H17.3333C21.0152 24.3236 24 21.3388 24 17.6569V6.99024C24 3.30835 21.0152 0.323578 17.3333 0.323578ZM21.6667 17.6569C21.6593 20.047 19.7235 21.9829 17.3333 21.9902H6.66667C4.27647 21.9829 2.34065 20.047 2.33333 17.6569V6.99024C2.34065 4.60004 4.27647 2.66423 6.66667 2.65691H17.3333C19.7235 2.66423 21.6593 4.60004 21.6667 6.99024V17.6569ZM18.3333 7.32358C19.0697 7.32358 19.6667 6.72662 19.6667 5.99024C19.6667 5.25387 19.0697 4.65691 18.3333 4.65691C17.5969 4.65691 17 5.25387 17 5.99024C17 6.72662 17.5969 7.32358 18.3333 7.32358ZM12 6.32358C8.68629 6.32358 6 9.00987 6 12.3236C6 15.6373 8.68629 18.3236 12 18.3236C15.3137 18.3236 18 15.6373 18 12.3236C18.0036 10.7312 17.3725 9.203 16.2465 8.07702C15.1205 6.95103 13.5924 6.32003 12 6.32358ZM8.33333 12.3236C8.33333 14.3486 9.97493 15.9902 12 15.9902C14.0251 15.9902 15.6667 14.3486 15.6667 12.3236C15.6667 10.2985 14.0251 8.65691 12 8.65691C9.97493 8.65691 8.33333 10.2985 8.33333 12.3236Z" fill="#333333"/>
</svg>
