<svg width="48" height="48" viewBox="0 0 48 48" fill="none" xmlns="http://www.w3.org/2000/svg">
<path d="M26.2404 34.0456L17.8426 29.4648C16.3827 31.025 14.3052 32 12 32C7.58172 32 4 28.4182 4 24C4 19.5817 7.58172 16 12 16C14.3051 16 16.3825 16.9749 17.8424 18.5349L26.2404 13.9543C26.0834 13.3288 26 12.6741 26 12C26 7.58172 29.5818 4 34 4C38.4182 4 42 7.58172 42 12C42 16.4183 38.4182 20 34 20C31.6948 20 29.6174 19.025 28.1574 17.4649L19.7595 22.0456C19.9166 22.671 20 23.3258 20 24C20 24.6742 19.9166 25.3288 19.7596 25.9542L28.1576 30.535C29.6174 28.975 31.6948 28 34 28C38.4182 28 42 31.5818 42 36C42 40.4182 38.4182 44 34 44C29.5818 44 26 40.4182 26 36C26 35.3258 26.0834 34.671 26.2404 34.0456ZM12 28C14.2091 28 16 26.2092 16 24C16 21.7908 14.2091 20 12 20C9.79086 20 8 21.7908 8 24C8 26.2092 9.79086 28 12 28ZM34 16C36.2092 16 38 14.2091 38 12C38 9.79086 36.2092 8 34 8C31.7908 8 30 9.79086 30 12C30 14.2091 31.7908 16 34 16ZM34 40C36.2092 40 38 38.2092 38 36C38 33.7908 36.2092 32 34 32C31.7908 32 30 33.7908 30 36C30 38.2092 31.7908 40 34 40Z" fill="black"/>
</svg>
