<svg width="26" height="23" viewBox="0 0 26 23" fill="none" xmlns="http://www.w3.org/2000/svg">
<path d="M21.7924 3.52856C22.5832 3.24163 22.9757 3.13836 23.1932 3.10143C23.1948 3.17096 23.1932 3.22734 23.1896 3.26432C22.8795 6.52288 21.5208 14.5397 20.8229 18.2701C20.6596 19.1437 20.5343 19.5596 19.6905 19.064C19.1352 18.7376 18.6327 18.3269 18.0943 17.974C16.3281 16.8161 13.8 15.0919 14.0076 15.1956C12.2688 14.0497 12.9967 13.3481 13.9673 12.4124C14.1245 12.2609 14.288 12.1033 14.4484 11.9367C14.52 11.8623 14.8703 11.5365 15.3641 11.0775C16.9483 9.60466 20.0095 6.7587 20.0868 6.42935C20.0995 6.37532 20.1112 6.17392 19.9915 6.06756C19.8719 5.96122 19.6953 5.99759 19.5679 6.02651C19.3872 6.06751 16.5101 7.96919 10.9366 11.7315C10.1199 12.2923 9.38022 12.5656 8.71748 12.5512L8.72341 12.5541C7.85041 12.2463 6.97986 11.9812 6.10473 11.7147C5.52981 11.5395 4.95292 11.3637 4.37205 11.1749C4.22998 11.1288 4.09137 11.0849 3.9611 11.044C9.99708 8.41452 14.0173 6.68323 16.0319 5.84532C18.9579 4.62831 20.6935 3.92734 21.7924 3.52856ZM25.0225 0.957404C24.6847 0.683244 24.3133 0.557417 24.0553 0.495791C23.7889 0.432151 23.5357 0.411671 23.3437 0.415057C22.7085 0.426244 22.0263 0.606897 20.8828 1.02182C19.7164 1.44508 17.924 2.17016 15.0077 3.38314C12.9517 4.23831 8.8585 6.00152 2.7382 8.66799C2.20061 8.88292 1.70781 9.12679 1.31845 9.41586C0.958916 9.68292 0.455636 10.1607 0.36357 10.8952C0.294022 11.4499 0.455756 11.9619 0.783756 12.3651C1.0693 12.716 1.43513 12.9292 1.71372 13.0641C2.12726 13.2644 2.68368 13.4388 3.17269 13.5921C3.93685 13.8316 4.69925 14.0763 5.46505 14.3107C7.83588 15.0364 9.78754 15.6337 11.9349 17.0488C13.51 18.0868 15.0547 19.17 16.6324 20.2041C17.2079 20.5813 17.7457 21.0143 18.3399 21.3632C18.9888 21.7445 19.8139 22.0923 20.8181 21.9997C22.3359 21.8601 23.1255 20.4639 23.4441 18.7604C24.1403 15.0395 25.5212 6.91134 25.8443 3.51698C25.8864 3.07391 25.8371 2.57732 25.796 2.33756C25.7537 2.09066 25.6245 1.44596 25.0225 0.957404Z" fill="#333333"/>
</svg>
