<svg width="24" height="24" viewBox="0 0 24 24" fill="none" xmlns="http://www.w3.org/2000/svg">
<path fill-rule="evenodd" clip-rule="evenodd" d="M5.15213 4.85267C5.37715 4.62771 5.68233 4.50133 6.00053 4.50133C6.31872 4.50133 6.62389 4.62771 6.84893 4.85267L12.0005 10.0043L17.1521 4.85267C17.2628 4.73806 17.3953 4.64665 17.5417 4.58375C17.6881 4.52086 17.8455 4.48775 18.0049 4.48637C18.1642 4.48498 18.3221 4.51535 18.4696 4.57569C18.6171 4.63603 18.7511 4.72513 18.8638 4.83779C18.9765 4.95047 19.0655 5.08445 19.1259 5.23193C19.1863 5.3794 19.2166 5.53742 19.2152 5.69675C19.2139 5.85609 19.1807 6.01355 19.1179 6.15995C19.055 6.30637 18.9635 6.43877 18.8489 6.54947L13.6973 11.7011L18.8489 16.8527C19.0675 17.079 19.1884 17.3822 19.1858 17.6968C19.183 18.0114 19.0568 18.3124 18.8343 18.5349C18.6118 18.7574 18.3109 18.8836 17.9962 18.8862C17.6816 18.889 17.3785 18.768 17.1521 18.5495L12.0005 13.3979L6.84893 18.5495C6.6226 18.768 6.31948 18.889 6.00485 18.8862C5.69021 18.8836 5.38924 18.7574 5.16675 18.5349C4.94425 18.3124 4.81805 18.0114 4.81531 17.6968C4.81258 17.3822 4.93354 17.079 5.15213 16.8527L10.3037 11.7011L5.15213 6.54947C4.92717 6.32444 4.80078 6.01927 4.80078 5.70107C4.80078 5.38287 4.92717 5.07771 5.15213 4.85267Z" fill="white"/>
</svg>
