<svg width="24" height="24" viewBox="0 0 24 24" fill="none" xmlns="http://www.w3.org/2000/svg">
<path fill-rule="evenodd" clip-rule="evenodd" d="M3.60156 5.99687C3.60156 5.67861 3.72799 5.37339 3.95303 5.14834C4.17808 4.92331 4.4833 4.79688 4.80156 4.79688H19.2016C19.5198 4.79688 19.8251 4.92331 20.0501 5.14834C20.2751 5.37339 20.4016 5.67861 20.4016 5.99687C20.4016 6.31514 20.2751 6.62036 20.0501 6.84541C19.8251 7.07044 19.5198 7.19687 19.2016 7.19687H4.80156C4.4833 7.19687 4.17808 7.07044 3.95303 6.84541C3.72799 6.62036 3.60156 6.31514 3.60156 5.99687ZM3.60156 11.9969C3.60156 11.6786 3.72799 11.3734 3.95303 11.1483C4.17808 10.9233 4.4833 10.7969 4.80156 10.7969H12.0016C12.3198 10.7969 12.6251 10.9233 12.8501 11.1483C13.0751 11.3734 13.2016 11.6786 13.2016 11.9969C13.2016 12.3151 13.0751 12.6204 12.8501 12.8454C12.6251 13.0704 12.3198 13.1969 12.0016 13.1969H4.80156C4.4833 13.1969 4.17808 13.0704 3.95303 12.8454C3.72799 12.6204 3.60156 12.3151 3.60156 11.9969ZM3.60156 17.9969C3.60156 17.6786 3.72799 17.3734 3.95303 17.1484C4.17808 16.9234 4.4833 16.7969 4.80156 16.7969H19.2016C19.5198 16.7969 19.8251 16.9234 20.0501 17.1484C20.2751 17.3734 20.4016 17.6786 20.4016 17.9969C20.4016 18.3151 20.2751 18.6204 20.0501 18.8454C19.8251 19.0704 19.5198 19.1969 19.2016 19.1969H4.80156C4.4833 19.1969 4.17808 19.0704 3.95303 18.8454C3.72799 18.6204 3.60156 18.3151 3.60156 17.9969Z" fill="white"/>
</svg>
