<svg width="48" height="48" viewBox="0 0 48 48" fill="none" xmlns="http://www.w3.org/2000/svg">
<path fill-rule="evenodd" clip-rule="evenodd" d="M10.3043 10.0178C10.7543 9.56792 11.3647 9.31515 12.0011 9.31515C12.6374 9.31515 13.2478 9.56792 13.6979 10.0178L24.0011 20.3211L34.3043 10.0178C34.5256 9.78862 34.7905 9.60579 35.0833 9.48001C35.3761 9.35422 35.691 9.28801 36.0097 9.28525C36.3284 9.28246 36.6443 9.34321 36.9392 9.46388C37.2342 9.58455 37.5023 9.76275 37.7276 9.98809C37.953 10.2134 38.1311 10.4814 38.2518 10.7764C38.3725 11.0713 38.4332 11.3873 38.4304 11.706C38.4277 12.0247 38.3615 12.3396 38.2357 12.6324C38.11 12.9252 37.9271 13.19 37.6979 13.4114L27.3947 23.7146L37.6979 34.0179C38.1349 34.4706 38.3768 35.0768 38.3716 35.7061C38.366 36.3354 38.1136 36.9373 37.6686 37.3823C37.2236 37.8272 36.6217 38.0797 35.9924 38.085C35.3632 38.0905 34.7569 37.8486 34.3043 37.4115L24.0011 27.1083L13.6979 37.4115C13.2452 37.8486 12.639 38.0905 12.0097 38.085C11.3804 38.0797 10.7785 37.8272 10.3335 37.3823C9.88851 36.9373 9.6361 36.3354 9.63063 35.7061C9.62516 35.0768 9.86707 34.4706 10.3043 34.0179L20.6075 23.7146L10.3043 13.4114C9.85433 12.9614 9.60156 12.351 9.60156 11.7146C9.60156 11.0782 9.85433 10.4679 10.3043 10.0178Z" fill="white"/>
</svg>
