<svg width="48" height="48" viewBox="0 0 48 48" fill="none" xmlns="http://www.w3.org/2000/svg">
<path fill-rule="evenodd" clip-rule="evenodd" d="M7.19922 11.9996C7.19922 11.3631 7.45208 10.7526 7.90215 10.3025C8.35225 9.85247 8.96269 9.59961 9.59922 9.59961H38.3992C39.0357 9.59961 39.6463 9.85247 40.0963 10.3025C40.5463 10.7526 40.7992 11.3631 40.7992 11.9996C40.7992 12.6361 40.5463 13.2466 40.0963 13.6967C39.6463 14.1467 39.0357 14.3996 38.3992 14.3996H9.59922C8.96269 14.3996 8.35225 14.1467 7.90215 13.6967C7.45208 13.2466 7.19922 12.6361 7.19922 11.9996ZM7.19922 23.9996C7.19922 23.3631 7.45208 22.7526 7.90215 22.3025C8.35225 21.8525 8.96269 21.5996 9.59922 21.5996H23.9992C24.6357 21.5996 25.2463 21.8525 25.6963 22.3025C26.1463 22.7526 26.3992 23.3631 26.3992 23.9996C26.3992 24.6361 26.1463 25.2466 25.6963 25.6966C25.2463 26.1466 24.6357 26.3996 23.9992 26.3996H9.59922C8.96269 26.3996 8.35225 26.1466 7.90215 25.6966C7.45208 25.2466 7.19922 24.6361 7.19922 23.9996ZM7.19922 35.9996C7.19922 35.3631 7.45208 34.7526 7.90215 34.3026C8.35225 33.8526 8.96269 33.5996 9.59922 33.5996H38.3992C39.0357 33.5996 39.6463 33.8526 40.0963 34.3026C40.5463 34.7526 40.7992 35.3631 40.7992 35.9996C40.7992 36.6361 40.5463 37.2466 40.0963 37.6966C39.6463 38.1466 39.0357 38.3996 38.3992 38.3996H9.59922C8.96269 38.3996 8.35225 38.1466 7.90215 37.6966C7.45208 37.2466 7.19922 36.6361 7.19922 35.9996Z" fill="white"/>
</svg>
