<svg width="48" height="48" viewBox="0 0 48 48" fill="none" xmlns="http://www.w3.org/2000/svg">
<g clip-path="url(#clip0_759_348)">
<path d="M35.8938 23.3599L38.9758 31.4999H44.9758C45.2786 31.4876 45.5778 31.5691 45.8324 31.7334C46.087 31.8976 46.2847 32.1365 46.3983 32.4174C46.5119 32.6983 46.536 33.0074 46.4672 33.3025C46.3983 33.5976 46.24 33.8642 46.0138 34.0659L40.8138 37.6979L43.6998 44.3239C43.8263 44.6276 43.8543 44.9633 43.7798 45.2837C43.7054 45.6042 43.5323 45.8932 43.285 46.1101C43.0376 46.327 42.7284 46.4608 42.401 46.4927C42.0736 46.5246 41.7444 46.4529 41.4598 46.2879L34.4798 42.3659L27.5058 46.2879C27.2213 46.4522 26.8924 46.5232 26.5655 46.491C26.2385 46.4587 25.9298 46.3248 25.6828 46.1081C25.4359 45.8914 25.263 45.6027 25.1886 45.2827C25.1142 44.9626 25.1419 44.6273 25.2678 44.3239L28.1538 37.6979L22.9538 34.0659C22.7271 33.8652 22.5681 33.5992 22.4984 33.3046C22.4287 33.0099 22.4518 32.7009 22.5646 32.4199C22.6774 32.1389 22.8744 31.8997 23.1284 31.735C23.3825 31.5703 23.6813 31.4881 23.9838 31.4999H29.9838L33.0738 23.3599C33.2106 23.1049 33.414 22.8917 33.6623 22.7432C33.9106 22.5946 34.1945 22.5161 34.4838 22.5161C34.7732 22.5161 35.0571 22.5946 35.3054 22.7432C35.5537 22.8917 35.7571 23.1049 35.8938 23.3599Z" stroke="#A36316" stroke-width="3" stroke-linecap="round" stroke-linejoin="round"/>
<path d="M19.5201 46.0539C15.3467 45.2065 11.4994 43.1921 8.4254 40.2449C5.35137 37.2977 3.17678 33.5387 2.1543 29.4047C1.13183 25.2706 1.30346 20.9313 2.64925 16.891C3.99504 12.8506 6.45973 9.27512 9.75693 6.57993C13.0541 3.88473 17.0485 2.18051 21.2758 1.6653C25.5031 1.15008 29.7898 1.84503 33.6378 3.66939C37.4859 5.49375 40.7372 8.37261 43.014 11.9715C45.2909 15.5703 46.4997 19.7413 46.5001 23.9999" stroke="#A36316" stroke-width="3" stroke-linecap="round" stroke-linejoin="round"/>
<path d="M18.578 45.8442C15.536 41.3782 13.5 33.2662 13.5 24.0002C13.5 14.7342 15.536 6.6242 18.578 2.1582" stroke="#A36316" stroke-width="3" stroke-linecap="round" stroke-linejoin="round"/>
<path d="M1.55078 22.5H25.5008" stroke="#A36316" stroke-width="3" stroke-linecap="round" stroke-linejoin="round"/>
<path d="M5.99805 10.5H42" stroke="#A36316" stroke-width="3" stroke-linecap="round" stroke-linejoin="round"/>
<path d="M4.0957 34.5H14.4277" stroke="#A36316" stroke-width="3" stroke-linecap="round" stroke-linejoin="round"/>
<path d="M29.4219 2.1582C31.9965 6.50743 33.5681 11.3764 34.0219 16.4102" stroke="#A36316" stroke-width="3" stroke-linecap="round" stroke-linejoin="round"/>
</g>
<defs>
<clipPath id="clip0_759_348">
<rect width="48" height="48" fill="white"/>
</clipPath>
</defs>
</svg>
