<svg width="800" height="545" viewBox="0 0 800 545" fill="none" xmlns="http://www.w3.org/2000/svg">
<mask id="path-1-inside-1_526_1794" fill="white">
<path d="M0 137.457C0 61.5416 61.5416 0 137.457 0H800V250.172H0V137.457Z"/>
</mask>
<path d="M-32.9897 137.457C-32.9897 43.3219 43.3219 -32.9897 137.457 -32.9897H832.99L767.01 32.9897H137.457C79.7613 32.9897 32.9897 79.7613 32.9897 137.457L-32.9897 137.457ZM800 250.172H0H800ZM-32.9897 250.172V137.457C-32.9897 43.3219 43.3219 -32.9897 137.457 -32.9897L137.457 32.9897C79.7613 32.9897 32.9897 79.7613 32.9897 137.457V250.172H-32.9897ZM832.99 -32.9897V250.172H767.01V32.9897L832.99 -32.9897Z" fill="black" mask="url(#path-1-inside-1_526_1794)"/>
<mask id="path-3-inside-2_526_1794" fill="white">
<path d="M0 406.873C0 482.788 61.5416 544.33 137.457 544.33H800V294.158H0V406.873Z"/>
</mask>
<path d="M-32.9897 406.873C-32.9897 501.008 43.3219 577.32 137.457 577.32H832.99L767.01 511.34H137.457C79.7613 511.34 32.9897 464.569 32.9897 406.873L-32.9897 406.873ZM800 294.158H0H800ZM-32.9897 294.158V406.873C-32.9897 501.008 43.3219 577.32 137.457 577.32L137.457 511.34C79.7613 511.34 32.9897 464.569 32.9897 406.873V294.158H-32.9897ZM832.99 577.32V294.158H767.01V511.34L832.99 577.32Z" fill="black" mask="url(#path-3-inside-2_526_1794)"/>
</svg>
