<svg width="49" height="49" viewBox="0 0 49 49" fill="none" xmlns="http://www.w3.org/2000/svg">
<rect width="49" height="49" rx="24" fill="#F6F0E8"/>
<path d="M23 17H5C3.4 17 2 15.6 2 14V5C2 3.4 3.4 2 5 2H23C24.6 2 26 3.4 26 5V14C26 15.8 24.6 17 23 17Z" stroke="#A36316" stroke-width="2" stroke-miterlimit="10" stroke-linecap="round" stroke-linejoin="round"/>
<path d="M13 17H2" stroke="#A36316" stroke-width="2" stroke-miterlimit="10" stroke-linecap="round" stroke-linejoin="round"/>
<path d="M13 17H2" stroke="#A36316" stroke-width="2" stroke-miterlimit="10" stroke-linecap="round" stroke-linejoin="round"/>
<path d="M2 17V23" stroke="#A36316" stroke-width="2" stroke-miterlimit="10" stroke-linecap="round" stroke-linejoin="round"/>
<path d="M47 46.9998V24C47 23.4 46.6 23 46 23H3C2.4 23 2 23.4 2 24V47" stroke="#A36316" stroke-width="2" stroke-miterlimit="10" stroke-linecap="round" stroke-linejoin="round"/>
<path d="M29.0938 22.9688V41.287C29.0938 41.9336 29.5021 42.3646 30.1146 42.3646H47.4369" stroke="#A36316" stroke-width="2" stroke-miterlimit="10" stroke-linecap="round" stroke-linejoin="round"/>
<path d="M1.53125 31.1354H29.0938" stroke="#A36316" stroke-width="2" stroke-miterlimit="10" stroke-linecap="round" stroke-linejoin="round"/>
<path d="M37.668 29.0938H38.8928" stroke="#A36316" stroke-width="2" stroke-miterlimit="10" stroke-linecap="round" stroke-linejoin="round"/>
<path d="M37.668 36.2396H38.8928" stroke="#A36316" stroke-width="2" stroke-miterlimit="10" stroke-linecap="round" stroke-linejoin="round"/>
</svg>
