<svg width="42" height="42" viewBox="0 0 42 42" fill="none" xmlns="http://www.w3.org/2000/svg">
<g clip-path="url(#clip0_530_2091)">
<rect width="42" height="42" rx="21" fill="#F6F0E8"/>
<path d="M21 39C26.094 38.875 30.336 37.117 33.726 33.726C37.116 30.335 38.874 26.093 39 21C38.875 15.906 37.117 11.664 33.726 8.274C30.335 4.884 26.093 3.126 21 3C15.906 3.125 11.664 4.883 8.274 8.274C4.884 11.665 3.126 15.907 3 21C3.125 26.094 4.883 30.336 8.274 33.726C11.665 37.116 15.907 38.874 21 39ZM21 42C15.062 41.844 10.1165 39.7895 6.1635 35.8365C2.2105 31.8835 0.156 26.938 0 21C0.156 15.062 2.2105 10.1165 6.1635 6.1635C10.1165 2.2105 15.062 0.156 21 0C26.938 0.156 31.8835 2.2105 35.8365 6.1635C39.7895 10.1165 41.844 15.062 42 21C41.844 26.938 39.7895 31.8835 35.8365 35.8365C31.8835 39.7895 26.938 41.844 21 42ZM19.5 9C19.938 9 20.2975 9.1405 20.5785 9.4215C20.8595 9.7025 21 10.062 21 10.5V22.5C21 22.938 20.8595 23.2975 20.5785 23.5785C20.2975 23.8595 19.938 24 19.5 24C19.062 24 18.7025 23.8595 18.4215 23.5785C18.1405 23.2975 18 22.938 18 22.5V10.5C18 10.062 18.1405 9.7025 18.4215 9.4215C18.7025 9.1405 19.062 9 19.5 9ZM19.5 21H31.5C32.5 21 33 21.5 33 22.5C33 23.5 32.5 24 31.5 24H19.5C18.5 24 18 23.5 18 22.5C18 21.5 18.5 21 19.5 21Z" fill="#A36316"/>
</g>
<defs>
<clipPath id="clip0_530_2091">
<rect width="42" height="42" rx="21" fill="white"/>
</clipPath>
</defs>
</svg>
