<svg width="48" height="48" viewBox="0 0 48 48" fill="none" xmlns="http://www.w3.org/2000/svg">
<rect width="48" height="48" rx="24" fill="#F6F0E8"/>
<g clip-path="url(#clip0_530_2096)">
<path d="M10.9083 17.6201C10.4807 15.7941 10.4539 13.8971 10.8297 12.0598C11.2054 10.2224 11.9749 8.48835 13.0851 6.97687C14.1952 5.46539 15.6198 4.21243 17.2606 3.30424C18.9014 2.39604 20.7195 1.85419 22.5898 1.71597C24.46 1.57775 26.3381 1.84645 28.0945 2.50357C29.851 3.1607 31.4442 4.19064 32.7646 5.52249C34.0849 6.85435 35.1009 8.4565 35.7427 10.2186C36.3845 11.9808 36.6368 13.8611 36.4823 15.7301" stroke="#A36316" stroke-width="2" stroke-linecap="round" stroke-linejoin="round"/>
<path d="M11.8203 9.10205H14.2783C15.2377 9.17444 16.1394 9.58834 16.8197 10.2687C17.5 10.949 17.9139 11.8507 17.9863 12.8101V16.2641C17.9863 16.7761 18.4423 17.2181 18.9443 17.6181" stroke="#A36316" stroke-width="2" stroke-linecap="round" stroke-linejoin="round"/>
<path d="M26.498 2.02393C26.498 2.02393 24.334 3.72793 23.542 4.33793C22.9003 4.83229 22.4793 5.5595 22.37 6.36208C22.2607 7.16465 22.4719 7.97798 22.958 8.62593L24.82 11.1099C25.1071 11.4922 25.4791 11.8025 25.9068 12.0163C26.3344 12.2302 26.8059 12.3416 27.284 12.3419H29.084C29.4885 12.3416 29.8891 12.4211 30.2629 12.5758C30.6366 12.7306 30.9761 12.9577 31.262 13.2439L32.684 14.6639" stroke="#A36316" stroke-width="2" stroke-linecap="round" stroke-linejoin="round"/>
<path d="M40.6695 38.218L30.6855 39.05" stroke="#A36316" stroke-width="2" stroke-linecap="round" stroke-linejoin="round"/>
<path d="M28.8582 26.43L21.8842 28.736C21.3443 28.9135 20.758 28.8862 20.2369 28.6594C19.7158 28.4326 19.2963 28.0221 19.0582 27.506C18.8022 26.9554 18.77 26.3269 18.9685 25.753C19.167 25.1791 19.5807 24.7048 20.1222 24.43L26.8782 21.03C27.454 20.74 28.0831 20.5711 28.7268 20.534C29.3704 20.4968 30.0149 20.5921 30.6202 20.814L40.6202 24.472" stroke="#A36316" stroke-width="2" stroke-linecap="round" stroke-linejoin="round"/>
<path d="M21.1522 23.912L20.4322 23.312C19.8529 22.8876 19.175 22.6178 18.4625 22.5282C17.75 22.4387 17.0265 22.5322 16.3602 22.8L7.41016 26.38" stroke="#A36316" stroke-width="2" stroke-linecap="round" stroke-linejoin="round"/>
<path d="M1.37695 22.9561H5.40095C5.91181 22.9344 6.41044 23.1161 6.78757 23.4613C7.16471 23.8066 7.3896 24.2873 7.41295 24.7981V37.7021C7.38959 38.213 7.16477 38.6939 6.78769 39.0395C6.41062 39.3851 5.912 39.5673 5.40095 39.5461H1.37695" stroke="#A36316" stroke-width="2" stroke-linecap="round" stroke-linejoin="round"/>
<path d="M46.6239 39.546H42.5999C42.0888 39.5672 41.5902 39.3851 41.2131 39.0395C40.8361 38.6939 40.6113 38.213 40.5879 37.702V24.8C40.6112 24.2893 40.8361 23.8086 41.2133 23.4633C41.5904 23.118 42.089 22.9363 42.5999 22.958H46.6219" stroke="#A36316" stroke-width="2" stroke-linecap="round" stroke-linejoin="round"/>
<path d="M26.0962 28L31.2962 35.138C31.6172 35.5788 31.8025 36.1038 31.8293 36.6485C31.8562 37.1931 31.7234 37.7338 31.4473 38.2041C31.1711 38.6743 30.7637 39.0537 30.275 39.2956C29.7863 39.5376 29.2375 39.6316 28.6962 39.566C28.5661 40.261 28.1754 40.88 27.6039 41.2964C27.0325 41.7128 26.3236 41.8951 25.6222 41.806C25.4917 42.5009 25.1009 43.1198 24.5297 43.5364C23.9584 43.9531 23.2497 44.136 22.5482 44.048C22.4424 44.5804 22.1841 45.0706 21.8048 45.4589C21.4255 45.8472 20.9416 46.1169 20.4118 46.2351C19.882 46.3534 19.3293 46.3151 18.8209 46.1249C18.3125 45.9348 17.8703 45.6009 17.5482 45.164L12.3022 38.572C11.9188 38.085 11.4339 37.6872 10.8813 37.4064C10.3287 37.1256 9.7216 36.9685 9.10216 36.946L7.41016 36.886" stroke="#A36316" stroke-width="2" stroke-linecap="round" stroke-linejoin="round"/>
<path d="M22.5583 44.0441L21.1543 42.3201" stroke="#A36316" stroke-width="2" stroke-linecap="round" stroke-linejoin="round"/>
<path d="M25.6297 41.8021L24.4277 40.2061" stroke="#A36316" stroke-width="2" stroke-linecap="round" stroke-linejoin="round"/>
<path d="M28.7046 39.562L27.3906 37.776" stroke="#A36316" stroke-width="2" stroke-linecap="round" stroke-linejoin="round"/>
</g>
<defs>
<clipPath id="clip0_530_2096">
<rect width="48" height="48" fill="white"/>
</clipPath>
</defs>
</svg>
