<svg width="48" height="48" viewBox="0 0 48 48" fill="none" xmlns="http://www.w3.org/2000/svg">
<rect width="48" height="48" rx="24" fill="#F6F0E8"/>
<g clip-path="url(#clip0_530_2058)">
<path d="M1 34.24C1 34.9447 1.1388 35.6425 1.40846 36.2935C1.67813 36.9445 2.07339 37.5361 2.57167 38.0344C3.06994 38.5326 3.66149 38.9279 4.31252 39.1976C4.96355 39.4672 5.66133 39.606 6.366 39.606C7.07067 39.606 7.76845 39.4672 8.41948 39.1976C9.07051 38.9279 9.66206 38.5326 10.1603 38.0344C10.6586 37.5361 11.0539 36.9445 11.3235 36.2935C11.5932 35.6425 11.732 34.9447 11.732 34.24C11.732 33.5354 11.5932 32.8376 11.3235 32.1865C11.0539 31.5355 10.6586 30.944 10.1603 30.4457C9.66206 29.9474 9.07051 29.5522 8.41948 29.2825C7.76845 29.0128 7.07067 28.874 6.366 28.874C5.66133 28.874 4.96355 29.0128 4.31252 29.2825C3.66149 29.5522 3.06994 29.9474 2.57167 30.4457C2.07339 30.944 1.67813 31.5355 1.40846 32.1865C1.1388 32.8376 1 33.5354 1 34.24Z" stroke="#A36316" stroke-width="2" stroke-linecap="round" stroke-linejoin="round"/>
<path d="M14.83 46.728C14.2887 45.4604 13.4695 44.3306 12.4329 43.4221C11.3963 42.5136 10.1688 41.8496 8.8411 41.4792C7.51341 41.1088 6.11946 41.0415 4.76227 41.2823C3.40507 41.523 2.11931 42.0656 1 42.87" stroke="#A36316" stroke-width="2" stroke-linecap="round" stroke-linejoin="round"/>
<path d="M36.2676 34.24C36.2676 35.6632 36.8329 37.028 37.8392 38.0344C38.8456 39.0407 40.2104 39.606 41.6336 39.606C43.0567 39.606 44.4216 39.0407 45.4279 38.0344C46.4342 37.028 46.9996 35.6632 46.9996 34.24C46.9996 32.8169 46.4342 31.452 45.4279 30.4457C44.4216 29.4394 43.0567 28.874 41.6336 28.874C40.2104 28.874 38.8456 29.4394 37.8392 30.4457C36.8329 31.452 36.2676 32.8169 36.2676 34.24Z" stroke="#A36316" stroke-width="2" stroke-linecap="round" stroke-linejoin="round"/>
<path d="M33.1699 46.728C33.7112 45.4604 34.5304 44.3306 35.567 43.4221C36.6036 42.5136 37.8311 41.8496 39.1588 41.4792C40.4865 41.1088 41.8805 41.0415 43.2377 41.2823C44.5949 41.523 45.8806 42.0656 46.9999 42.87" stroke="#A36316" stroke-width="2" stroke-linecap="round" stroke-linejoin="round"/>
<path d="M17.0996 32.706C17.0996 34.536 17.8266 36.2911 19.1206 37.5851C20.4146 38.8791 22.1696 39.606 23.9996 39.606C25.8296 39.606 27.5846 38.8791 28.8786 37.5851C30.1726 36.2911 30.8996 34.536 30.8996 32.706C30.8996 30.876 30.1726 29.121 28.8786 27.827C27.5846 26.533 25.8296 25.806 23.9996 25.806C22.1696 25.806 20.4146 26.533 19.1206 27.827C17.8266 29.121 17.0996 30.876 17.0996 32.706Z" stroke="#A36316" stroke-width="2" stroke-linecap="round" stroke-linejoin="round"/>
<path d="M33.1701 46.728C32.008 45.4513 30.592 44.4313 29.013 43.7334C27.4339 43.0354 25.7265 42.6749 24.0001 42.6749C22.2737 42.6749 20.5662 43.0354 18.9872 43.7334C17.4081 44.4313 15.9922 45.4513 14.8301 46.728" stroke="#A36316" stroke-width="2" stroke-linecap="round" stroke-linejoin="round"/>
<path d="M25.0837 1.93795L27.6377 6.96395H31.9857C32.2211 6.9649 32.451 7.03509 32.6469 7.16576C32.8427 7.29644 32.9958 7.48183 33.087 7.69886C33.1783 7.91588 33.2037 8.15495 33.16 8.3863C33.1164 8.61765 33.0057 8.83106 32.8417 8.99995L28.8417 12.93L31.0537 18.01C31.1541 18.2428 31.1781 18.5015 31.1223 18.7489C31.0665 18.9962 30.9338 19.2196 30.7432 19.3869C30.5526 19.5541 30.314 19.6567 30.0614 19.6799C29.8089 19.7031 29.5555 19.6457 29.3377 19.516L23.9997 16.51L18.6537 19.51C18.4358 19.6397 18.1824 19.6971 17.9299 19.6739C17.6774 19.6507 17.4387 19.5481 17.2481 19.3809C17.0575 19.2136 16.9248 18.9902 16.8691 18.7429C16.8133 18.4955 16.8373 18.2368 16.9377 18.004L19.1497 12.924L15.1497 8.99395C14.9855 8.82494 14.8748 8.61135 14.8312 8.37981C14.7877 8.14828 14.8132 7.90904 14.9047 7.69194C14.9962 7.47483 15.1496 7.28946 15.3457 7.15894C15.5419 7.02841 15.7721 6.95851 16.0077 6.95795H20.3537L22.9157 1.93795C23.0174 1.73786 23.1725 1.56982 23.3638 1.45245C23.5551 1.33508 23.7752 1.27295 23.9997 1.27295C24.2241 1.27295 24.4442 1.33508 24.6355 1.45245C24.8269 1.56982 24.982 1.73786 25.0837 1.93795Z" stroke="#A36316" stroke-width="2" stroke-linecap="round" stroke-linejoin="round"/>
<path d="M10.2007 4.34C9.97571 4.33825 9.7548 4.39976 9.56313 4.51752C9.37146 4.63528 9.21675 4.80455 9.11665 5.006L6.56265 10.03H2.21665C1.98065 10.0302 1.74995 10.0999 1.55339 10.2306C1.35684 10.3612 1.20317 10.5469 1.1116 10.7644C1.02002 10.9819 0.994622 11.2216 1.03856 11.4534C1.08251 11.6853 1.19385 11.8991 1.35865 12.068L5.35065 16L3.13865 21.078C3.03828 21.3109 3.01426 21.5696 3.07003 21.8169C3.12581 22.0643 3.25851 22.2876 3.4491 22.4549C3.63969 22.6222 3.87837 22.7248 4.13089 22.748C4.38341 22.7711 4.63678 22.7138 4.85465 22.584L10.2007 19.576L11.6147 20.376" stroke="#A36316" stroke-width="2" stroke-linecap="round" stroke-linejoin="round"/>
<path d="M37.8027 4.34C38.0276 4.33825 38.2485 4.39976 38.4402 4.51752C38.6319 4.63528 38.7866 4.80455 38.8867 5.006L41.4407 10.03H45.7867C46.0227 10.0302 46.2534 10.0999 46.4499 10.2306C46.6465 10.3612 46.8002 10.5469 46.8917 10.7644C46.9833 10.9819 47.0087 11.2216 46.9648 11.4534C46.9208 11.6853 46.8095 11.8991 46.6447 12.068L42.6527 16L44.8647 21.082C44.965 21.3149 44.9891 21.5736 44.9333 21.8209C44.8775 22.0683 44.7448 22.2916 44.5542 22.4589C44.3636 22.6262 44.125 22.7288 43.8724 22.752C43.6199 22.7751 43.3665 22.7178 43.1487 22.588L37.8027 19.576L36.3887 20.376" stroke="#A36316" stroke-width="2" stroke-linecap="round" stroke-linejoin="round"/>
<path d="M18.5176 28.528C20.1452 30.095 22.0996 31.2822 24.2404 32.0046C26.3811 32.7269 28.6553 32.9665 30.8996 32.706" stroke="#A36316" stroke-width="2" stroke-linecap="round" stroke-linejoin="round"/>
<path d="M1.52539 31.936C4.56078 33.7487 8.09238 34.5532 11.6134 34.234" stroke="#A36316" stroke-width="2" stroke-linecap="round" stroke-linejoin="round"/>
<path d="M36.8008 31.936C39.836 33.7491 43.3677 34.5536 46.8888 34.234" stroke="#A36316" stroke-width="2" stroke-linecap="round" stroke-linejoin="round"/>
</g>
<defs>
<clipPath id="clip0_530_2058">
<rect width="48" height="48" fill="white"/>
</clipPath>
</defs>
</svg>
